<svg width="369" height="127" viewBox="0 0 369 127" fill="none" xmlns="http://www.w3.org/2000/svg">
<path d="M8.84863 33.5596V33.5596C36.1336 18.0568 69.5636 18.0568 96.8486 33.5596V33.5596V33.5596C124.134 49.0624 157.564 49.0624 184.849 33.5596V33.5596" stroke="currentColor" stroke-linecap="round" stroke-linejoin="round"/>
<path d="M184.849 33.5596V33.5596C212.134 18.0568 245.564 18.0568 272.849 33.5596V33.5596V33.5596C300.134 49.0624 333.564 49.0624 360.849 33.5596V33.5596" stroke="currentColor" stroke-linecap="round" stroke-linejoin="round"/>
<path d="M8.84863 45.5596V45.5596C36.1336 30.0568 69.5636 30.0568 96.8486 45.5596V45.5596V45.5596C124.134 61.0624 157.564 61.0624 184.849 45.5596V45.5596" stroke="currentColor" stroke-linecap="round" stroke-linejoin="round"/>
<path d="M184.849 45.5596V45.5596C212.134 30.0568 245.564 30.0568 272.849 45.5596V45.5596V45.5596C300.134 61.0624 333.564 61.0624 360.849 45.5596V45.5596" stroke="currentColor" stroke-linecap="round" stroke-linejoin="round"/>
<path d="M8.84863 57.5596V57.5596C36.1336 42.0568 69.5636 42.0568 96.8486 57.5596V57.5596V57.5596C124.134 73.0624 157.564 73.0624 184.849 57.5596V57.5596" stroke="currentColor" stroke-linecap="round" stroke-linejoin="round"/>
<path d="M184.849 57.5596V57.5596C212.134 42.0568 245.564 42.0568 272.849 57.5596V57.5596V57.5596C300.134 73.0624 333.564 73.0624 360.849 57.5596V57.5596" stroke="currentColor" stroke-linecap="round" stroke-linejoin="round"/>
<path d="M8.84863 69.5596V69.5596C36.1336 54.0568 69.5636 54.0568 96.8486 69.5596V69.5596V69.5596C124.134 85.0624 157.564 85.0624 184.849 69.5596V69.5596" stroke="currentColor" stroke-linecap="round" stroke-linejoin="round"/>
<path d="M184.849 69.5596V69.5596C212.134 54.0568 245.564 54.0568 272.849 69.5596V69.5596V69.5596C300.134 85.0624 333.564 85.0624 360.849 69.5596V69.5596" stroke="currentColor" stroke-linecap="round" stroke-linejoin="round"/>
<path d="M8.84863 81.5596V81.5596C36.1336 66.0568 69.5636 66.0568 96.8486 81.5596V81.5596V81.5596C124.134 97.0624 157.564 97.0624 184.849 81.5596V81.5596" stroke="currentColor" stroke-linecap="round" stroke-linejoin="round"/>
<path d="M184.849 81.5596V81.5596C212.134 66.0568 245.564 66.0568 272.849 81.5596V81.5596V81.5596C300.134 97.0624 333.564 97.0624 360.849 81.5596V81.5596" stroke="currentColor" stroke-linecap="round" stroke-linejoin="round"/>
<path d="M8.84863 93.5596V93.5596C36.1336 78.0568 69.5636 78.0568 96.8486 93.5596V93.5596V93.5596C124.134 109.062 157.564 109.062 184.849 93.5596V93.5596" stroke="currentColor" stroke-linecap="round" stroke-linejoin="round"/>
<path d="M184.849 93.5596V93.5596C212.134 78.0568 245.564 78.0568 272.849 93.5596V93.5596V93.5596C300.134 109.062 333.564 109.062 360.849 93.5596V93.5596" stroke="currentColor" stroke-linecap="round" stroke-linejoin="round"/>
</svg>
