<svg width="1400" height="159" viewBox="0 0 1400 159" fill="none" xmlns="http://www.w3.org/2000/svg">
<rect width="1400" height="159" fill="#F5F5F5"/>
<path d="M111.839 59.6094V98H103.955V59.6094H111.839ZM130.56 92.5947C131.491 92.5947 132.317 92.4189 133.038 92.0674C133.759 91.6982 134.321 91.1885 134.726 90.5381C135.147 89.8701 135.367 89.0879 135.385 88.1914H142.53C142.513 90.1953 141.977 91.9795 140.922 93.5439C139.867 95.0908 138.452 96.3125 136.677 97.209C134.901 98.0879 132.915 98.5273 130.718 98.5273C128.503 98.5273 126.569 98.1582 124.917 97.4199C123.282 96.6816 121.92 95.6621 120.83 94.3613C119.74 93.043 118.923 91.5137 118.378 89.7734C117.833 88.0156 117.561 86.1348 117.561 84.1309V83.3662C117.561 81.3447 117.833 79.4639 118.378 77.7236C118.923 75.9658 119.74 74.4365 120.83 73.1357C121.92 71.8174 123.282 70.7891 124.917 70.0508C126.552 69.3125 128.468 68.9434 130.665 68.9434C133.003 68.9434 135.051 69.3916 136.809 70.2881C138.584 71.1846 139.973 72.4678 140.975 74.1377C141.994 75.79 142.513 77.75 142.53 80.0176H135.385C135.367 79.0684 135.165 78.207 134.778 77.4336C134.409 76.6602 133.864 76.0449 133.144 75.5879C132.44 75.1133 131.57 74.876 130.533 74.876C129.426 74.876 128.521 75.1133 127.817 75.5879C127.114 76.0449 126.569 76.6777 126.183 77.4863C125.796 78.2773 125.523 79.1826 125.365 80.2021C125.225 81.2041 125.154 82.2588 125.154 83.3662V84.1309C125.154 85.2383 125.225 86.3018 125.365 87.3213C125.506 88.3408 125.77 89.2461 126.156 90.0371C126.561 90.8281 127.114 91.4521 127.817 91.9092C128.521 92.3662 129.435 92.5947 130.56 92.5947ZM145.721 84.0254V83.4717C145.721 81.3799 146.02 79.4551 146.617 77.6973C147.215 75.9219 148.085 74.3838 149.228 73.083C150.37 71.7822 151.776 70.7715 153.446 70.0508C155.116 69.3125 157.032 68.9434 159.194 68.9434C161.356 68.9434 163.281 69.3125 164.969 70.0508C166.656 70.7715 168.071 71.7822 169.214 73.083C170.374 74.3838 171.253 75.9219 171.851 77.6973C172.448 79.4551 172.747 81.3799 172.747 83.4717V84.0254C172.747 86.0996 172.448 88.0244 171.851 89.7998C171.253 91.5576 170.374 93.0957 169.214 94.4141C168.071 95.7148 166.665 96.7256 164.995 97.4463C163.325 98.167 161.409 98.5273 159.247 98.5273C157.085 98.5273 155.16 98.167 153.473 97.4463C151.803 96.7256 150.388 95.7148 149.228 94.4141C148.085 93.0957 147.215 91.5576 146.617 89.7998C146.02 88.0244 145.721 86.0996 145.721 84.0254ZM153.314 83.4717V84.0254C153.314 85.2207 153.42 86.3369 153.631 87.374C153.842 88.4111 154.176 89.3252 154.633 90.1162C155.107 90.8896 155.723 91.4961 156.479 91.9355C157.234 92.375 158.157 92.5947 159.247 92.5947C160.302 92.5947 161.207 92.375 161.963 91.9355C162.719 91.4961 163.325 90.8896 163.782 90.1162C164.239 89.3252 164.573 88.4111 164.784 87.374C165.013 86.3369 165.127 85.2207 165.127 84.0254V83.4717C165.127 82.3115 165.013 81.2217 164.784 80.2021C164.573 79.165 164.23 78.251 163.756 77.46C163.299 76.6514 162.692 76.0186 161.937 75.5615C161.181 75.1045 160.267 74.876 159.194 74.876C158.122 74.876 157.208 75.1045 156.452 75.5615C155.714 76.0186 155.107 76.6514 154.633 77.46C154.176 78.251 153.842 79.165 153.631 80.2021C153.42 81.2217 153.314 82.3115 153.314 83.4717ZM184.85 75.5615V98H177.256V69.4707H184.375L184.85 75.5615ZM183.742 82.7334H181.686C181.686 80.624 181.958 78.7256 182.503 77.0381C183.048 75.333 183.812 73.8828 184.797 72.6875C185.781 71.4746 186.95 70.5518 188.304 69.9189C189.675 69.2686 191.204 68.9434 192.892 68.9434C194.228 68.9434 195.449 69.1367 196.557 69.5234C197.664 69.9102 198.613 70.5254 199.404 71.3691C200.213 72.2129 200.828 73.3291 201.25 74.7178C201.689 76.1064 201.909 77.8027 201.909 79.8066V98H194.263V79.7803C194.263 78.5146 194.087 77.5303 193.735 76.8271C193.384 76.124 192.865 75.6318 192.18 75.3506C191.512 75.0518 190.686 74.9023 189.701 74.9023C188.682 74.9023 187.794 75.1045 187.038 75.5088C186.3 75.9131 185.685 76.4756 185.192 77.1963C184.718 77.8994 184.357 78.7256 184.111 79.6748C183.865 80.624 183.742 81.6436 183.742 82.7334ZM223.108 90.1162C223.108 89.5713 222.95 89.0791 222.634 88.6396C222.317 88.2002 221.729 87.7959 220.867 87.4268C220.023 87.04 218.802 86.6885 217.202 86.3721C215.761 86.0557 214.416 85.6602 213.168 85.1855C211.938 84.6934 210.865 84.1045 209.951 83.4189C209.055 82.7334 208.352 81.9248 207.842 80.9932C207.332 80.0439 207.077 78.9629 207.077 77.75C207.077 76.5547 207.332 75.4297 207.842 74.375C208.369 73.3203 209.116 72.3887 210.083 71.5801C211.067 70.7539 212.263 70.1123 213.669 69.6553C215.093 69.1807 216.692 68.9434 218.468 68.9434C220.946 68.9434 223.073 69.3389 224.849 70.1299C226.642 70.9209 228.013 72.0107 228.962 73.3994C229.929 74.7705 230.412 76.335 230.412 78.0928H222.818C222.818 77.3545 222.66 76.6953 222.344 76.1152C222.045 75.5176 221.57 75.0518 220.92 74.7178C220.287 74.3662 219.461 74.1904 218.441 74.1904C217.598 74.1904 216.868 74.3398 216.253 74.6387C215.638 74.9199 215.163 75.3066 214.829 75.7988C214.513 76.2734 214.354 76.8008 214.354 77.3809C214.354 77.8203 214.442 78.2158 214.618 78.5674C214.812 78.9014 215.119 79.209 215.541 79.4902C215.963 79.7715 216.508 80.0352 217.176 80.2812C217.861 80.5098 218.705 80.7207 219.707 80.9141C221.764 81.3359 223.601 81.8896 225.218 82.5752C226.835 83.2432 228.118 84.1572 229.067 85.3174C230.017 86.46 230.491 87.9629 230.491 89.8262C230.491 91.0918 230.21 92.252 229.647 93.3066C229.085 94.3613 228.276 95.2842 227.222 96.0752C226.167 96.8486 224.901 97.4551 223.425 97.8945C221.966 98.3164 220.322 98.5273 218.494 98.5273C215.84 98.5273 213.59 98.0527 211.744 97.1035C209.916 96.1543 208.527 94.9502 207.578 93.4912C206.646 92.0146 206.181 90.5029 206.181 88.9561H213.379C213.414 89.9932 213.678 90.8281 214.17 91.4609C214.68 92.0938 215.321 92.5508 216.095 92.832C216.886 93.1133 217.738 93.2539 218.652 93.2539C219.637 93.2539 220.454 93.1221 221.104 92.8584C221.755 92.5771 222.247 92.208 222.581 91.751C222.933 91.2764 223.108 90.7314 223.108 90.1162Z" fill="currentColor"/>
</svg>
