<svg viewBox="0 0 24 24" fill="none" xmlns="http://www.w3.org/2000/svg">
<path fill-rule="evenodd" clip-rule="evenodd" d="M5 8.75C4.66848 8.75 4.35054 8.8817 4.11612 9.11612C3.8817 9.35054 3.75 9.66848 3.75 10V16C3.75 16.4142 3.41421 16.75 3 16.75C2.58579 16.75 2.25 16.4142 2.25 16V10C2.25 9.27065 2.53973 8.57118 3.05546 8.05546C3.57118 7.53973 4.27065 7.25 5 7.25C5.72935 7.25 6.42882 7.53973 6.94454 8.05546C7.46027 8.57118 7.75 9.27065 7.75 10V16C7.75 16.4142 7.41421 16.75 7 16.75C6.58579 16.75 6.25 16.4142 6.25 16V10C6.25 9.66848 6.1183 9.35054 5.88388 9.11612C5.64946 8.8817 5.33152 8.75 5 8.75Z" fill="currentColor"/>
<path fill-rule="evenodd" clip-rule="evenodd" d="M2.25 13C2.25 12.5858 2.58579 12.25 3 12.25H7C7.41421 12.25 7.75 12.5858 7.75 13C7.75 13.4142 7.41421 13.75 7 13.75H3C2.58579 13.75 2.25 13.4142 2.25 13Z" fill="currentColor"/>
<path fill-rule="evenodd" clip-rule="evenodd" d="M10 7.25C10.4142 7.25 10.75 7.58579 10.75 8V10.5505C11.1335 10.3548 11.5614 10.25 12 10.25C12.7293 10.25 13.4288 10.5397 13.9445 11.0555C14.4603 11.5712 14.75 12.2707 14.75 13V14C14.75 14.7293 14.4603 15.4288 13.9445 15.9445C13.4288 16.4603 12.7293 16.75 12 16.75C11.2707 16.75 10.5712 16.4603 10.0555 15.9445C9.53973 15.4288 9.25 14.7293 9.25 14V8C9.25 7.58579 9.58579 7.25 10 7.25ZM10.75 14C10.75 14.3315 10.8817 14.6495 11.1161 14.8839C11.3505 15.1183 11.6685 15.25 12 15.25C12.3315 15.25 12.6495 15.1183 12.8839 14.8839C13.1183 14.6495 13.25 14.3315 13.25 14V13C13.25 12.6685 13.1183 12.3505 12.8839 12.1161C12.6495 11.8817 12.3315 11.75 12 11.75C11.6685 11.75 11.3505 11.8817 11.1161 12.1161C10.8817 12.3505 10.75 12.6685 10.75 13V14Z" fill="currentColor"/>
<path fill-rule="evenodd" clip-rule="evenodd" d="M18.2882 10.3437C18.873 10.187 19.493 10.2277 20.0523 10.4593C20.6116 10.6909 21.0788 11.1006 21.3815 11.6249C21.5886 11.9836 21.4657 12.4423 21.107 12.6494C20.7483 12.8565 20.2896 12.7337 20.0825 12.3749C19.9449 12.1367 19.7325 11.9504 19.4783 11.8451C19.2241 11.7398 18.9423 11.7214 18.6765 11.7926C18.4107 11.8638 18.1758 12.0207 18.0083 12.239C17.9432 12.3239 17.8897 12.4162 17.8486 12.5135C17.7839 12.6664 17.75 12.8317 17.75 12.9999M18.2882 10.3437C17.7035 10.5004 17.1868 10.8456 16.8183 11.3259ZM16.8183 11.3259C16.4498 11.8061 16.25 12.3945 16.25 12.9999ZM16.25 12.9999V13.9999ZM17.75 13.9999C17.7501 14.2744 17.8405 14.5412 18.0073 14.7591C18.1741 14.9771 18.408 15.1342 18.673 15.206C18.9379 15.2778 19.2191 15.2604 19.4732 15.1565C19.7273 15.0526 19.9401 14.8679 20.0787 14.631C20.288 14.2735 20.7474 14.1534 21.1049 14.3627C21.4624 14.5719 21.5825 15.0314 21.3733 15.3888C21.0682 15.91 20.6 16.3162 20.041 16.5448C19.4821 16.7735 18.8634 16.8117 18.2805 16.6537C17.6977 16.4957 17.183 16.1503 16.816 15.6706C16.449 15.191 16.2501 14.6038 16.25 13.9999M17.75 13.9999V12.9999Z" fill="currentColor"/>
<path d="M17.75 12.9999C17.75 12.8317 17.7839 12.6664 17.8486 12.5135L18.2882 10.3437L16.8183 11.3259L16.25 12.9999V13.9999H17.75V12.9999Z" fill="currentColor"/>
</svg>
