<svg width="24" height="24" viewBox="0 0 24 24" fill="none" xmlns="http://www.w3.org/2000/svg">
<path fill-rule="evenodd" clip-rule="evenodd" d="M6.25 5C6.25 4.58579 6.58579 4.25 7 4.25H13C14.1272 4.25 15.2082 4.69777 16.0052 5.4948C16.8022 6.29183 17.25 7.37283 17.25 8.5C17.25 9.62717 16.8022 10.7082 16.0052 11.5052C15.2082 12.3022 14.1272 12.75 13 12.75H7C6.58579 12.75 6.25 12.4142 6.25 12V5ZM7.75 5.75V11.25H13C13.7293 11.25 14.4288 10.9603 14.9445 10.4445C15.4603 9.92882 15.75 9.22935 15.75 8.5C15.75 7.77065 15.4603 7.07118 14.9445 6.55546C14.4288 6.03973 13.7293 5.75 13 5.75H7.75Z" fill="black"/>
<path fill-rule="evenodd" clip-rule="evenodd" d="M7 11.25C7.41421 11.25 7.75 11.5858 7.75 12V18.25H14C14.7293 18.25 15.4288 17.9603 15.9445 17.4445C16.4603 16.9288 16.75 16.2293 16.75 15.5C16.75 14.7707 16.4603 14.0712 15.9445 13.5555C15.4288 13.0397 14.7293 12.75 14 12.75H13C12.5858 12.75 12.25 12.4142 12.25 12C12.25 11.5858 12.5858 11.25 13 11.25H14C15.1272 11.25 16.2082 11.6978 17.0052 12.4948C17.8022 13.2918 18.25 14.3728 18.25 15.5C18.25 16.6272 17.8022 17.7082 17.0052 18.5052C16.2082 19.3022 15.1272 19.75 14 19.75H7C6.58579 19.75 6.25 19.4142 6.25 19V12C6.25 11.5858 6.58579 11.25 7 11.25Z" fill="black"/>
</svg>
