<svg width="24" height="24" viewBox="0 0 24 24" fill="none" xmlns="http://www.w3.org/2000/svg">
<path fill-rule="evenodd" clip-rule="evenodd" d="M7.6 8.55004C7.84853 8.88142 7.78137 9.35152 7.45 9.60004L4.25 12L7.45 14.4C7.78137 14.6486 7.84853 15.1187 7.6 15.45C7.35147 15.7814 6.88137 15.8486 6.55 15.6L2.55 12.6C2.36115 12.4584 2.25 12.2361 2.25 12C2.25 11.764 2.36115 11.5417 2.55 11.4L6.55 8.40004C6.88137 8.15152 7.35147 8.21867 7.6 8.55004Z" fill="black"/>
<path fill-rule="evenodd" clip-rule="evenodd" d="M16.4697 8.46967C16.7626 8.17678 17.2374 8.17678 17.5303 8.46967L20.5303 11.4697C20.8232 11.7626 20.8232 12.2374 20.5303 12.5303L17.5303 15.5303C17.2374 15.8232 16.7626 15.8232 16.4697 15.5303C16.1768 15.2374 16.1768 14.7626 16.4697 14.4697L18.9393 12L16.4697 9.53033C16.1768 9.23744 16.1768 8.76256 16.4697 8.46967Z" fill="black"/>
<path fill-rule="evenodd" clip-rule="evenodd" d="M14.2374 5.28845C14.6303 5.41943 14.8427 5.84417 14.7117 6.23713L10.7117 18.2371C10.5807 18.6301 10.156 18.8425 9.76303 18.7115C9.37008 18.5805 9.15771 18.1557 9.28869 17.7628L13.2887 5.76279C13.4197 5.36983 13.8444 5.15746 14.2374 5.28845Z" fill="black"/>
</svg>
