<svg width="1400" height="96" viewBox="0 0 1400 96" fill="none" xmlns="http://www.w3.org/2000/svg">
<path d="M102.624 48.9189H103.649C103.649 49.6344 103.444 50.1722 103.034 50.5322C102.629 50.8877 102.075 51.0654 101.373 51.0654C100.885 51.0654 100.464 50.9538 100.108 50.7305C99.7575 50.5072 99.484 50.1973 99.2881 49.8008C99.0967 49.4043 99.001 48.944 99.001 48.4199V47.6201C99.001 47.096 99.0967 46.6357 99.2881 46.2393C99.484 45.8428 99.7575 45.5329 100.108 45.3096C100.464 45.0863 100.885 44.9746 101.373 44.9746C102.075 44.9746 102.631 45.1546 103.041 45.5146C103.451 45.8701 103.656 46.4056 103.656 47.1211H102.631C102.631 46.6745 102.524 46.3555 102.31 46.1641C102.1 45.9681 101.788 45.8701 101.373 45.8701C101.077 45.8701 100.826 45.9453 100.621 46.0957C100.421 46.2415 100.268 46.4466 100.163 46.7109C100.063 46.9753 100.013 47.276 100.013 47.6133V48.4199C100.013 48.7617 100.063 49.0648 100.163 49.3291C100.268 49.5934 100.421 49.8008 100.621 49.9512C100.826 50.097 101.077 50.1699 101.373 50.1699C101.788 50.1699 102.1 50.0742 102.31 49.8828C102.519 49.6914 102.624 49.3701 102.624 48.9189ZM97.415 48.0166C97.415 48.6227 97.5199 49.1878 97.7295 49.7119C97.9391 50.2314 98.2285 50.6872 98.5977 51.0791C98.9714 51.4665 99.402 51.7695 99.8896 51.9883C100.382 52.2025 100.908 52.3096 101.469 52.3096C102.025 52.3096 102.547 52.2025 103.034 51.9883C103.522 51.7695 103.95 51.4665 104.319 51.0791C104.693 50.6872 104.985 50.2314 105.194 49.7119C105.404 49.1878 105.509 48.6227 105.509 48.0166C105.509 47.4105 105.404 46.8477 105.194 46.3281C104.985 45.8086 104.693 45.3551 104.319 44.9678C103.95 44.5804 103.522 44.2796 103.034 44.0654C102.547 43.8467 102.025 43.7373 101.469 43.7373C100.908 43.7373 100.382 43.8467 99.8896 44.0654C99.402 44.2796 98.9714 44.5804 98.5977 44.9678C98.2285 45.3551 97.9391 45.8086 97.7295 46.3281C97.5199 46.8477 97.415 47.4105 97.415 48.0166ZM96.6152 48.0166C96.6152 47.292 96.7406 46.6198 96.9912 46C97.2419 45.3802 97.5905 44.8402 98.0371 44.3799C98.4837 43.915 98.9987 43.555 99.582 43.2998C100.17 43.04 100.799 42.9102 101.469 42.9102C102.139 42.9102 102.765 43.04 103.349 43.2998C103.937 43.555 104.451 43.915 104.894 44.3799C105.34 44.8402 105.689 45.3802 105.939 46C106.19 46.6198 106.315 47.292 106.315 48.0166C106.315 48.7412 106.19 49.4134 105.939 50.0332C105.689 50.653 105.34 51.1976 104.894 51.667C104.451 52.1318 103.937 52.4941 103.349 52.7539C102.765 53.0137 102.139 53.1436 101.469 53.1436C100.799 53.1436 100.17 53.0137 99.582 52.7539C98.9987 52.4941 98.4837 52.1318 98.0371 51.667C97.5905 51.1976 97.2419 50.653 96.9912 50.0332C96.7406 49.4134 96.6152 48.7412 96.6152 48.0166ZM119.399 43.0469V53H117.684L113.22 45.8701V53H111.504V43.0469H113.22L117.697 50.1904V43.0469H119.399ZM120.965 49.3838V49.2266C120.965 48.6934 121.042 48.1989 121.197 47.7432C121.352 47.2829 121.576 46.8841 121.867 46.5469C122.163 46.2051 122.523 45.9408 122.947 45.7539C123.376 45.5625 123.859 45.4668 124.396 45.4668C124.939 45.4668 125.422 45.5625 125.846 45.7539C126.274 45.9408 126.636 46.2051 126.933 46.5469C127.229 46.8841 127.454 47.2829 127.609 47.7432C127.764 48.1989 127.842 48.6934 127.842 49.2266V49.3838C127.842 49.917 127.764 50.4115 127.609 50.8672C127.454 51.3229 127.229 51.7217 126.933 52.0635C126.636 52.4007 126.276 52.665 125.853 52.8564C125.429 53.0433 124.948 53.1367 124.41 53.1367C123.868 53.1367 123.382 53.0433 122.954 52.8564C122.53 52.665 122.17 52.4007 121.874 52.0635C121.578 51.7217 121.352 51.3229 121.197 50.8672C121.042 50.4115 120.965 49.917 120.965 49.3838ZM122.612 49.2266V49.3838C122.612 49.7165 122.646 50.0309 122.715 50.3271C122.783 50.6234 122.89 50.8831 123.036 51.1064C123.182 51.3298 123.369 51.5052 123.597 51.6328C123.825 51.7604 124.096 51.8242 124.41 51.8242C124.715 51.8242 124.98 51.7604 125.203 51.6328C125.431 51.5052 125.618 51.3298 125.764 51.1064C125.91 50.8831 126.017 50.6234 126.085 50.3271C126.158 50.0309 126.194 49.7165 126.194 49.3838V49.2266C126.194 48.8984 126.158 48.5885 126.085 48.2969C126.017 48.0007 125.907 47.7386 125.757 47.5107C125.611 47.2829 125.424 47.1051 125.196 46.9775C124.973 46.8454 124.706 46.7793 124.396 46.7793C124.087 46.7793 123.818 46.8454 123.59 46.9775C123.367 47.1051 123.182 47.2829 123.036 47.5107C122.89 47.7386 122.783 48.0007 122.715 48.2969C122.646 48.5885 122.612 48.8984 122.612 49.2266ZM132.613 45.6035V46.8066H128.443V45.6035H132.613ZM129.646 43.792H131.294V50.9561C131.294 51.1839 131.326 51.3594 131.39 51.4824C131.458 51.6009 131.551 51.6807 131.67 51.7217C131.788 51.7627 131.927 51.7832 132.087 51.7832C132.201 51.7832 132.31 51.7764 132.415 51.7627C132.52 51.749 132.604 51.7354 132.668 51.7217L132.675 52.9795C132.538 53.0205 132.379 53.057 132.196 53.0889C132.019 53.1208 131.813 53.1367 131.581 53.1367C131.203 53.1367 130.868 53.0706 130.576 52.9385C130.285 52.8018 130.057 52.5807 129.893 52.2754C129.729 51.9701 129.646 51.5645 129.646 51.0586V43.792ZM135.648 45.6035V53H133.994V45.6035H135.648ZM133.885 43.6621C133.885 43.4115 133.967 43.2041 134.131 43.04C134.299 42.8714 134.532 42.7871 134.828 42.7871C135.12 42.7871 135.35 42.8714 135.519 43.04C135.687 43.2041 135.771 43.4115 135.771 43.6621C135.771 43.9082 135.687 44.1133 135.519 44.2773C135.35 44.4414 135.12 44.5234 134.828 44.5234C134.532 44.5234 134.299 44.4414 134.131 44.2773C133.967 44.1133 133.885 43.9082 133.885 43.6621ZM137.139 49.3838V49.2266C137.139 48.6934 137.216 48.1989 137.371 47.7432C137.526 47.2829 137.749 46.8841 138.041 46.5469C138.337 46.2051 138.697 45.9408 139.121 45.7539C139.549 45.5625 140.033 45.4668 140.57 45.4668C141.113 45.4668 141.596 45.5625 142.02 45.7539C142.448 45.9408 142.81 46.2051 143.106 46.5469C143.403 46.8841 143.628 47.2829 143.783 47.7432C143.938 48.1989 144.016 48.6934 144.016 49.2266V49.3838C144.016 49.917 143.938 50.4115 143.783 50.8672C143.628 51.3229 143.403 51.7217 143.106 52.0635C142.81 52.4007 142.45 52.665 142.026 52.8564C141.603 53.0433 141.122 53.1367 140.584 53.1367C140.042 53.1367 139.556 53.0433 139.128 52.8564C138.704 52.665 138.344 52.4007 138.048 52.0635C137.752 51.7217 137.526 51.3229 137.371 50.8672C137.216 50.4115 137.139 49.917 137.139 49.3838ZM138.786 49.2266V49.3838C138.786 49.7165 138.82 50.0309 138.889 50.3271C138.957 50.6234 139.064 50.8831 139.21 51.1064C139.356 51.3298 139.543 51.5052 139.771 51.6328C139.998 51.7604 140.27 51.8242 140.584 51.8242C140.889 51.8242 141.154 51.7604 141.377 51.6328C141.605 51.5052 141.792 51.3298 141.938 51.1064C142.083 50.8831 142.19 50.6234 142.259 50.3271C142.332 50.0309 142.368 49.7165 142.368 49.3838V49.2266C142.368 48.8984 142.332 48.5885 142.259 48.2969C142.19 48.0007 142.081 47.7386 141.931 47.5107C141.785 47.2829 141.598 47.1051 141.37 46.9775C141.147 46.8454 140.88 46.7793 140.57 46.7793C140.26 46.7793 139.992 46.8454 139.764 46.9775C139.54 47.1051 139.356 47.2829 139.21 47.5107C139.064 47.7386 138.957 48.0007 138.889 48.2969C138.82 48.5885 138.786 48.8984 138.786 49.2266ZM147.03 47.1826V53H145.383V45.6035H146.935L147.03 47.1826ZM146.736 49.0283L146.203 49.0215C146.208 48.4974 146.281 48.0166 146.422 47.5791C146.568 47.1416 146.768 46.7656 147.023 46.4512C147.283 46.1367 147.593 45.8952 147.953 45.7266C148.313 45.5534 148.714 45.4668 149.156 45.4668C149.512 45.4668 149.833 45.5169 150.12 45.6172C150.412 45.7129 150.66 45.8701 150.865 46.0889C151.075 46.3076 151.234 46.5924 151.344 46.9434C151.453 47.2897 151.508 47.7158 151.508 48.2217V53H149.854V48.2148C149.854 47.8594 149.801 47.5791 149.696 47.374C149.596 47.1644 149.448 47.0163 149.252 46.9297C149.061 46.8385 148.821 46.793 148.534 46.793C148.252 46.793 147.999 46.8522 147.775 46.9707C147.552 47.0892 147.363 47.251 147.208 47.4561C147.058 47.6611 146.941 47.8981 146.859 48.167C146.777 48.4359 146.736 48.723 146.736 49.0283ZM159.232 49.7598H160.941C160.887 50.4115 160.704 50.9925 160.395 51.5029C160.085 52.0088 159.649 52.4076 159.089 52.6992C158.528 52.9909 157.847 53.1367 157.045 53.1367C156.43 53.1367 155.876 53.0273 155.384 52.8086C154.892 52.5853 154.47 52.2708 154.119 51.8652C153.768 51.4551 153.499 50.9606 153.312 50.3818C153.13 49.8031 153.039 49.1559 153.039 48.4404V47.6133C153.039 46.8978 153.132 46.2507 153.319 45.6719C153.511 45.0931 153.784 44.5986 154.14 44.1885C154.495 43.7738 154.921 43.457 155.418 43.2383C155.919 43.0195 156.482 42.9102 157.106 42.9102C157.899 42.9102 158.569 43.056 159.116 43.3477C159.663 43.6393 160.087 44.0426 160.388 44.5576C160.693 45.0726 160.88 45.6628 160.948 46.3281H159.239C159.194 45.8997 159.093 45.5329 158.938 45.2275C158.788 44.9222 158.565 44.6898 158.269 44.5303C157.972 44.3662 157.585 44.2842 157.106 44.2842C156.715 44.2842 156.373 44.3571 156.081 44.5029C155.789 44.6488 155.546 44.863 155.35 45.1455C155.154 45.4281 155.006 45.7767 154.905 46.1914C154.81 46.6016 154.762 47.071 154.762 47.5996V48.4404C154.762 48.9417 154.805 49.3975 154.892 49.8076C154.983 50.2132 155.119 50.5618 155.302 50.8535C155.489 51.1452 155.726 51.3708 156.013 51.5303C156.3 51.6898 156.644 51.7695 157.045 51.7695C157.533 51.7695 157.927 51.6921 158.228 51.5371C158.533 51.3822 158.763 51.1566 158.918 50.8604C159.077 50.5596 159.182 50.1927 159.232 49.7598ZM162.021 49.3838V49.2266C162.021 48.6934 162.099 48.1989 162.254 47.7432C162.409 47.2829 162.632 46.8841 162.924 46.5469C163.22 46.2051 163.58 45.9408 164.004 45.7539C164.432 45.5625 164.915 45.4668 165.453 45.4668C165.995 45.4668 166.479 45.5625 166.902 45.7539C167.331 45.9408 167.693 46.2051 167.989 46.5469C168.285 46.8841 168.511 47.2829 168.666 47.7432C168.821 48.1989 168.898 48.6934 168.898 49.2266V49.3838C168.898 49.917 168.821 50.4115 168.666 50.8672C168.511 51.3229 168.285 51.7217 167.989 52.0635C167.693 52.4007 167.333 52.665 166.909 52.8564C166.485 53.0433 166.005 53.1367 165.467 53.1367C164.924 53.1367 164.439 53.0433 164.011 52.8564C163.587 52.665 163.227 52.4007 162.931 52.0635C162.634 51.7217 162.409 51.3229 162.254 50.8672C162.099 50.4115 162.021 49.917 162.021 49.3838ZM163.669 49.2266V49.3838C163.669 49.7165 163.703 50.0309 163.771 50.3271C163.84 50.6234 163.947 50.8831 164.093 51.1064C164.239 51.3298 164.425 51.5052 164.653 51.6328C164.881 51.7604 165.152 51.8242 165.467 51.8242C165.772 51.8242 166.036 51.7604 166.26 51.6328C166.488 51.5052 166.674 51.3298 166.82 51.1064C166.966 50.8831 167.073 50.6234 167.142 50.3271C167.215 50.0309 167.251 49.7165 167.251 49.3838V49.2266C167.251 48.8984 167.215 48.5885 167.142 48.2969C167.073 48.0007 166.964 47.7386 166.813 47.5107C166.668 47.2829 166.481 47.1051 166.253 46.9775C166.03 46.8454 165.763 46.7793 165.453 46.7793C165.143 46.7793 164.874 46.8454 164.646 46.9775C164.423 47.1051 164.239 47.2829 164.093 47.5107C163.947 47.7386 163.84 48.0007 163.771 48.2969C163.703 48.5885 163.669 48.8984 163.669 49.2266ZM171.927 47.1074V53H170.279V45.6035H171.831L171.927 47.1074ZM171.66 49.0283L171.1 49.0215C171.1 48.5111 171.163 48.0394 171.291 47.6064C171.419 47.1735 171.605 46.7975 171.852 46.4785C172.098 46.1549 172.403 45.9066 172.768 45.7334C173.137 45.5557 173.563 45.4668 174.046 45.4668C174.383 45.4668 174.691 45.5169 174.969 45.6172C175.251 45.7129 175.495 45.8656 175.7 46.0752C175.91 46.2848 176.069 46.5537 176.179 46.8818C176.293 47.21 176.35 47.6064 176.35 48.0713V53H174.702V48.2148C174.702 47.8548 174.647 47.5723 174.538 47.3672C174.433 47.1621 174.281 47.0163 174.08 46.9297C173.884 46.8385 173.649 46.793 173.376 46.793C173.066 46.793 172.802 46.8522 172.583 46.9707C172.369 47.0892 172.193 47.251 172.057 47.4561C171.92 47.6611 171.82 47.8981 171.756 48.167C171.692 48.4359 171.66 48.723 171.66 49.0283ZM176.247 48.5908L175.475 48.7617C175.475 48.3151 175.536 47.8936 175.659 47.4971C175.787 47.096 175.971 46.7451 176.213 46.4443C176.459 46.139 176.762 45.8997 177.122 45.7266C177.482 45.5534 177.895 45.4668 178.359 45.4668C178.738 45.4668 179.075 45.5192 179.371 45.624C179.672 45.7243 179.927 45.8838 180.137 46.1025C180.346 46.3213 180.506 46.6061 180.615 46.957C180.725 47.3034 180.779 47.7227 180.779 48.2148V53H179.125V48.208C179.125 47.8343 179.07 47.5449 178.961 47.3398C178.856 47.1348 178.706 46.9935 178.51 46.916C178.314 46.834 178.079 46.793 177.806 46.793C177.55 46.793 177.325 46.8408 177.129 46.9365C176.938 47.0277 176.776 47.1576 176.644 47.3262C176.511 47.4902 176.411 47.6794 176.343 47.8936C176.279 48.1077 176.247 48.3402 176.247 48.5908ZM184.122 47.1074V53H182.475V45.6035H184.026L184.122 47.1074ZM183.855 49.0283L183.295 49.0215C183.295 48.5111 183.359 48.0394 183.486 47.6064C183.614 47.1735 183.801 46.7975 184.047 46.4785C184.293 46.1549 184.598 45.9066 184.963 45.7334C185.332 45.5557 185.758 45.4668 186.241 45.4668C186.578 45.4668 186.886 45.5169 187.164 45.6172C187.447 45.7129 187.69 45.8656 187.896 46.0752C188.105 46.2848 188.265 46.5537 188.374 46.8818C188.488 47.21 188.545 47.6064 188.545 48.0713V53H186.897V48.2148C186.897 47.8548 186.843 47.5723 186.733 47.3672C186.629 47.1621 186.476 47.0163 186.275 46.9297C186.079 46.8385 185.845 46.793 185.571 46.793C185.261 46.793 184.997 46.8522 184.778 46.9707C184.564 47.0892 184.389 47.251 184.252 47.4561C184.115 47.6611 184.015 47.8981 183.951 48.167C183.887 48.4359 183.855 48.723 183.855 49.0283ZM188.442 48.5908L187.67 48.7617C187.67 48.3151 187.731 47.8936 187.854 47.4971C187.982 47.096 188.167 46.7451 188.408 46.4443C188.654 46.139 188.957 45.8997 189.317 45.7266C189.677 45.5534 190.09 45.4668 190.555 45.4668C190.933 45.4668 191.27 45.5192 191.566 45.624C191.867 45.7243 192.122 45.8838 192.332 46.1025C192.542 46.3213 192.701 46.6061 192.811 46.957C192.92 47.3034 192.975 47.7227 192.975 48.2148V53H191.32V48.208C191.32 47.8343 191.266 47.5449 191.156 47.3398C191.051 47.1348 190.901 46.9935 190.705 46.916C190.509 46.834 190.274 46.793 190.001 46.793C189.746 46.793 189.52 46.8408 189.324 46.9365C189.133 47.0277 188.971 47.1576 188.839 47.3262C188.707 47.4902 188.606 47.6794 188.538 47.8936C188.474 48.1077 188.442 48.3402 188.442 48.5908ZM197.931 53.1367C197.384 53.1367 196.889 53.0479 196.447 52.8701C196.01 52.6878 195.636 52.4349 195.326 52.1113C195.021 51.7878 194.786 51.4072 194.622 50.9697C194.458 50.5322 194.376 50.0605 194.376 49.5547V49.2812C194.376 48.7025 194.46 48.1784 194.629 47.709C194.798 47.2396 195.032 46.8385 195.333 46.5059C195.634 46.1686 195.989 45.9111 196.399 45.7334C196.81 45.5557 197.254 45.4668 197.732 45.4668C198.261 45.4668 198.724 45.5557 199.12 45.7334C199.517 45.9111 199.845 46.1618 200.104 46.4854C200.369 46.8044 200.565 47.1849 200.692 47.627C200.825 48.069 200.891 48.5566 200.891 49.0898V49.7939H195.176V48.6113H199.264V48.4814C199.255 48.1852 199.195 47.9072 199.086 47.6475C198.981 47.3877 198.819 47.1781 198.601 47.0186C198.382 46.859 198.09 46.7793 197.726 46.7793C197.452 46.7793 197.208 46.8385 196.994 46.957C196.785 47.071 196.609 47.2373 196.468 47.4561C196.326 47.6748 196.217 47.9391 196.14 48.249C196.067 48.5544 196.03 48.8984 196.03 49.2812V49.5547C196.03 49.8783 196.074 50.179 196.16 50.457C196.251 50.7305 196.383 50.9697 196.557 51.1748C196.73 51.3799 196.939 51.5417 197.186 51.6602C197.432 51.7741 197.712 51.8311 198.026 51.8311C198.423 51.8311 198.776 51.7513 199.086 51.5918C199.396 51.4323 199.665 51.2067 199.893 50.915L200.761 51.7559C200.601 51.9883 200.394 52.2116 200.139 52.4258C199.883 52.6354 199.571 52.8063 199.202 52.9385C198.838 53.0706 198.414 53.1367 197.931 53.1367ZM203.81 47.1826V53H202.162V45.6035H203.714L203.81 47.1826ZM203.516 49.0283L202.982 49.0215C202.987 48.4974 203.06 48.0166 203.201 47.5791C203.347 47.1416 203.548 46.7656 203.803 46.4512C204.062 46.1367 204.372 45.8952 204.732 45.7266C205.092 45.5534 205.493 45.4668 205.936 45.4668C206.291 45.4668 206.612 45.5169 206.899 45.6172C207.191 45.7129 207.439 45.8701 207.645 46.0889C207.854 46.3076 208.014 46.5924 208.123 46.9434C208.232 47.2897 208.287 47.7158 208.287 48.2217V53H206.633V48.2148C206.633 47.8594 206.58 47.5791 206.476 47.374C206.375 47.1644 206.227 47.0163 206.031 46.9297C205.84 46.8385 205.601 46.793 205.313 46.793C205.031 46.793 204.778 46.8522 204.555 46.9707C204.331 47.0892 204.142 47.251 203.987 47.4561C203.837 47.6611 203.721 47.8981 203.639 48.167C203.557 48.4359 203.516 48.723 203.516 49.0283ZM213.359 45.6035V46.8066H209.189V45.6035H213.359ZM210.393 43.792H212.04V50.9561C212.04 51.1839 212.072 51.3594 212.136 51.4824C212.204 51.6009 212.298 51.6807 212.416 51.7217C212.535 51.7627 212.674 51.7832 212.833 51.7832C212.947 51.7832 213.056 51.7764 213.161 51.7627C213.266 51.749 213.35 51.7354 213.414 51.7217L213.421 52.9795C213.284 53.0205 213.125 53.057 212.942 53.0889C212.765 53.1208 212.56 53.1367 212.327 53.1367C211.949 53.1367 211.614 53.0706 211.322 52.9385C211.031 52.8018 210.803 52.5807 210.639 52.2754C210.475 51.9701 210.393 51.5645 210.393 51.0586V43.792ZM218.78 50.9971C218.78 50.833 218.739 50.6849 218.657 50.5527C218.575 50.416 218.418 50.293 218.186 50.1836C217.958 50.0742 217.62 49.974 217.174 49.8828C216.782 49.7962 216.422 49.6937 216.094 49.5752C215.77 49.4521 215.492 49.304 215.26 49.1309C215.027 48.9577 214.847 48.7526 214.72 48.5156C214.592 48.2786 214.528 48.0052 214.528 47.6953C214.528 47.3945 214.594 47.1097 214.727 46.8408C214.859 46.5719 215.048 46.335 215.294 46.1299C215.54 45.9248 215.839 45.763 216.189 45.6445C216.545 45.526 216.941 45.4668 217.379 45.4668C217.999 45.4668 218.53 45.5716 218.972 45.7812C219.418 45.9863 219.76 46.2666 219.997 46.6221C220.234 46.973 220.353 47.3695 220.353 47.8115H218.705C218.705 47.6156 218.655 47.4333 218.555 47.2646C218.459 47.0915 218.313 46.9525 218.117 46.8477C217.921 46.7383 217.675 46.6836 217.379 46.6836C217.096 46.6836 216.862 46.7292 216.675 46.8203C216.493 46.9069 216.356 47.0208 216.265 47.1621C216.178 47.3034 216.135 47.4583 216.135 47.627C216.135 47.75 216.158 47.8617 216.203 47.9619C216.253 48.0576 216.335 48.1465 216.449 48.2285C216.563 48.306 216.718 48.3789 216.914 48.4473C217.115 48.5156 217.365 48.5817 217.666 48.6455C218.231 48.764 218.716 48.9167 219.122 49.1035C219.532 49.2858 219.847 49.5228 220.065 49.8145C220.284 50.1016 220.394 50.4661 220.394 50.9082C220.394 51.2363 220.323 51.5371 220.182 51.8105C220.045 52.0794 219.844 52.3141 219.58 52.5146C219.316 52.7106 218.999 52.8633 218.63 52.9727C218.265 53.082 217.855 53.1367 217.399 53.1367C216.729 53.1367 216.162 53.0182 215.697 52.7812C215.232 52.5397 214.879 52.2321 214.638 51.8584C214.401 51.4801 214.282 51.0882 214.282 50.6826H215.875C215.893 50.988 215.978 51.2318 216.128 51.4141C216.283 51.5918 216.474 51.7217 216.702 51.8037C216.935 51.8812 217.174 51.9199 217.42 51.9199C217.716 51.9199 217.965 51.8812 218.165 51.8037C218.366 51.7217 218.518 51.6123 218.623 51.4756C218.728 51.3343 218.78 51.1748 218.78 50.9971Z" fill="#CACACA"/>
</svg>
