<svg viewBox="0 0 24 24" fill="none" xmlns="http://www.w3.org/2000/svg">
<path fill-rule="evenodd" clip-rule="evenodd" d="M10.6804 3.84848C9.65205 4.01537 8.66055 4.3762 7.76016 4.91595C6.47921 5.68383 5.43073 6.78503 4.72655 8.10208C4.02238 9.41913 3.68893 10.9026 3.76177 12.3943C3.83462 13.886 4.31102 15.33 5.14017 16.5722C5.96932 17.8143 7.1201 18.8081 8.46978 19.4476C9.81945 20.087 11.3174 20.348 12.8038 20.2029C14.2902 20.0577 15.7093 19.5118 16.9098 18.6234C17.6564 18.0708 18.301 17.3987 18.8196 16.6376C17.5447 16.8445 16.2302 16.7506 14.9838 16.3517C13.1466 15.7639 11.5734 14.5508 10.5378 12.9233C9.50214 11.2959 9.06955 9.35698 9.31518 7.44366C9.48178 6.1459 9.95328 4.91555 10.6804 3.84848ZM12.1094 2.24994H12.3928C12.7011 2.24994 12.9781 2.43868 13.0908 2.72569C13.2036 3.01269 13.1292 3.33947 12.9033 3.54937C11.7471 4.6237 11.0039 6.06923 10.803 7.63467C10.602 9.2001 10.9559 10.7865 11.8033 12.118C12.6506 13.4496 13.9377 14.4421 15.4409 14.9231C16.9442 15.4041 18.5684 15.3431 20.0313 14.7508C20.3116 14.6373 20.6327 14.7032 20.8455 14.918C21.0584 15.1329 21.1214 15.4545 21.0054 15.7338C20.328 17.3636 19.2209 18.7791 17.8021 19.8291C16.3834 20.8791 14.7062 21.5242 12.9496 21.6958C11.1929 21.8673 9.42263 21.5588 7.82756 20.8031C6.23249 20.0474 4.87247 18.873 3.89257 17.4049C2.91267 15.9369 2.34965 14.2304 2.26356 12.4675C2.17747 10.7046 2.57155 8.95135 3.40375 7.39483C4.23596 5.83832 5.47508 4.5369 6.98893 3.6294C8.50278 2.72191 10.2346 2.24237 11.9996 2.24194C12.0365 2.24193 12.0734 2.24464 12.1094 2.24994Z" fill="currentColor"/>
</svg>
