<svg width="24" height="24" viewBox="0 0 24 24" fill="none" xmlns="http://www.w3.org/2000/svg">
<path fill-rule="evenodd" clip-rule="evenodd" d="M3.25 7C3.25 6.58579 3.58579 6.25 4 6.25H20C20.4142 6.25 20.75 6.58579 20.75 7C20.75 7.41421 20.4142 7.75 20 7.75H4C3.58579 7.75 3.25 7.41421 3.25 7Z" fill="black"/>
<path fill-rule="evenodd" clip-rule="evenodd" d="M10 10.25C10.4142 10.25 10.75 10.5858 10.75 11V17C10.75 17.4142 10.4142 17.75 10 17.75C9.58579 17.75 9.25 17.4142 9.25 17V11C9.25 10.5858 9.58579 10.25 10 10.25Z" fill="black"/>
<path fill-rule="evenodd" clip-rule="evenodd" d="M14 10.25C14.4142 10.25 14.75 10.5858 14.75 11V17C14.75 17.4142 14.4142 17.75 14 17.75C13.5858 17.75 13.25 17.4142 13.25 17V11C13.25 10.5858 13.5858 10.25 14 10.25Z" fill="black"/>
<path fill-rule="evenodd" clip-rule="evenodd" d="M4.93776 6.25263C5.35054 6.21823 5.71305 6.52497 5.74745 6.93776L6.74745 18.9378C6.74918 18.9585 6.75004 18.9793 6.75004 19C6.75004 19.3316 6.88174 19.6495 7.11616 19.8839C7.35058 20.1183 7.66852 20.25 8.00004 20.25H16C16.3316 20.25 16.6495 20.1183 16.8839 19.8839C17.1183 19.6495 17.25 19.3316 17.25 19C17.25 18.9793 17.2509 18.9585 17.2526 18.9378L18.2526 6.93776C18.287 6.52497 18.6495 6.21823 19.0623 6.25263C19.4751 6.28703 19.7818 6.64954 19.7475 7.06233L18.7498 19.0337C18.7411 19.7509 18.4524 20.4368 17.9446 20.9446C17.4289 21.4603 16.7294 21.75 16 21.75H8.00004C7.2707 21.75 6.57122 21.4603 6.0555 20.9446C5.54771 20.4368 5.25902 19.7509 5.25025 19.0337L4.25263 7.06233C4.21823 6.64954 4.52497 6.28703 4.93776 6.25263Z" fill="black"/>
<path fill-rule="evenodd" clip-rule="evenodd" d="M10 3.75C9.9337 3.75 9.87011 3.77634 9.82322 3.82322C9.77634 3.87011 9.75 3.9337 9.75 4V7C9.75 7.41421 9.41421 7.75 9 7.75C8.58579 7.75 8.25 7.41421 8.25 7V4C8.25 3.53587 8.43437 3.09075 8.76256 2.76256C9.09075 2.43437 9.53587 2.25 10 2.25H14C14.4641 2.25 14.9092 2.43437 15.2374 2.76256C15.5656 3.09075 15.75 3.53587 15.75 4V7C15.75 7.41421 15.4142 7.75 15 7.75C14.5858 7.75 14.25 7.41421 14.25 7V4C14.25 3.9337 14.2237 3.87011 14.1768 3.82322C14.1299 3.77634 14.0663 3.75 14 3.75H10Z" fill="black"/>
</svg>
