<svg viewBox="0 0 24 24" fill="none" xmlns="http://www.w3.org/2000/svg">
<path fill-rule="evenodd" clip-rule="evenodd" d="M4.05546 7.05546C4.57118 6.53973 5.27065 6.25 6 6.25H7C7.41421 6.25 7.75 6.58579 7.75 7C7.75 7.41421 7.41421 7.75 7 7.75H6C5.66848 7.75 5.35054 7.8817 5.11612 8.11612C4.8817 8.35054 4.75 8.66848 4.75 9V18C4.75 18.3315 4.8817 18.6495 5.11612 18.8839C5.35054 19.1183 5.66848 19.25 6 19.25H15C15.3315 19.25 15.6495 19.1183 15.8839 18.8839C16.1183 18.6495 16.25 18.3315 16.25 18V17C16.25 16.5858 16.5858 16.25 17 16.25C17.4142 16.25 17.75 16.5858 17.75 17V18C17.75 18.7293 17.4603 19.4288 16.9445 19.9445C16.4288 20.4603 15.7293 20.75 15 20.75H6C5.27065 20.75 4.57118 20.4603 4.05546 19.9445C3.53973 19.4288 3.25 18.7293 3.25 18V9C3.25 8.27065 3.53973 7.57118 4.05546 7.05546Z" fill="currentColor"/>
<path fill-rule="evenodd" clip-rule="evenodd" d="M18.9 2.25C18.1443 2.25 17.4196 2.55009 16.8852 3.08428L8.47062 11.4688C8.32939 11.6096 8.25 11.8007 8.25 12.0001V15.0001C8.25 15.4143 8.58579 15.7501 9 15.7501H12C12.1994 15.7501 12.3905 15.6707 12.5313 15.5295L20.9153 7.11544L20.9163 7.1145C21.4502 6.58009 21.7501 5.85556 21.7501 5.10011C21.7501 4.34421 21.4498 3.61928 20.9153 3.08478C20.3808 2.55028 19.6559 2.25 18.9 2.25ZM20.3851 6.58517L19.8547 6.05478C20.1079 5.80158 20.2501 5.45818 20.2501 5.10011C20.2501 4.74204 20.1079 4.39863 19.8547 4.14544C19.6015 3.89224 19.2581 3.75 18.9 3.75C18.5419 3.75 18.1985 3.89224 17.9453 4.14544L9.75 12.3116V14.2501H11.6886L19.8537 6.05572L20.3851 6.58517Z" fill="currentColor"/>
<path fill-rule="evenodd" clip-rule="evenodd" d="M15.4697 4.46967C15.7626 4.17678 16.2374 4.17678 16.5303 4.46967L19.5303 7.46967C19.8232 7.76256 19.8232 8.23744 19.5303 8.53033C19.2374 8.82322 18.7626 8.82322 18.4697 8.53033L15.4697 5.53033C15.1768 5.23744 15.1768 4.76256 15.4697 4.46967Z" fill="currentColor"/>
</svg>
