<svg width="24" height="24" viewBox="0 0 24 24" fill="none" xmlns="http://www.w3.org/2000/svg">
<path fill-rule="evenodd" clip-rule="evenodd" d="M6 4.75C5.30964 4.75 4.75 5.30964 4.75 6V18C4.75 18.6904 5.30964 19.25 6 19.25H18C18.6904 19.25 19.25 18.6904 19.25 18V6C19.25 5.30964 18.6904 4.75 18 4.75H6ZM3.25 6C3.25 4.48122 4.48122 3.25 6 3.25H18C19.5188 3.25 20.75 4.48122 20.75 6V18C20.75 19.5188 19.5188 20.75 18 20.75H6C4.48122 20.75 3.25 19.5188 3.25 18V6Z" fill="black"/>
<path fill-rule="evenodd" clip-rule="evenodd" d="M3.25 13C3.25 12.5858 3.58579 12.25 4 12.25H7C7.19891 12.25 7.38968 12.329 7.53033 12.4697L10.3107 15.25H13.6893L16.4697 12.4697C16.6103 12.329 16.8011 12.25 17 12.25H20C20.4142 12.25 20.75 12.5858 20.75 13C20.75 13.4142 20.4142 13.75 20 13.75H17.3107L14.5303 16.5303C14.3897 16.671 14.1989 16.75 14 16.75H10C9.80109 16.75 9.61032 16.671 9.46967 16.5303L6.68934 13.75H4C3.58579 13.75 3.25 13.4142 3.25 13Z" fill="black"/>
</svg>
