<svg viewBox="0 0 24 24" fill="none" xmlns="http://www.w3.org/2000/svg">
<path fill-rule="evenodd" clip-rule="evenodd" d="M10.25 5C10.25 4.58579 10.5858 4.25 11 4.25H17C17.4142 4.25 17.75 4.58579 17.75 5C17.75 5.41421 17.4142 5.75 17 5.75H11C10.5858 5.75 10.25 5.41421 10.25 5Z" fill="currentColor"/>
<path fill-rule="evenodd" clip-rule="evenodd" d="M6.25 19C6.25 18.5858 6.58579 18.25 7 18.25H13C13.4142 18.25 13.75 18.5858 13.75 19C13.75 19.4142 13.4142 19.75 13 19.75H7C6.58579 19.75 6.25 19.4142 6.25 19Z" fill="currentColor"/>
<path fill-rule="evenodd" clip-rule="evenodd" d="M14.2062 4.27881C14.6045 4.3926 14.8351 4.80771 14.7213 5.20599L10.7213 19.206C10.6075 19.6043 10.1924 19.8349 9.79415 19.7211C9.39588 19.6073 9.16526 19.1922 9.27905 18.7939L13.279 4.79391C13.3928 4.39563 13.808 4.16501 14.2062 4.27881Z" fill="currentColor"/>
</svg>
