<svg width="24" height="24" viewBox="0 0 24 24" fill="none" xmlns="http://www.w3.org/2000/svg">
<path fill-rule="evenodd" clip-rule="evenodd" d="M13.4697 4.46968C14.2734 3.66599 15.3634 3.21448 16.5 3.21448C17.6366 3.21448 18.7266 3.66599 19.5303 4.46968C20.334 5.27337 20.7855 6.36342 20.7855 7.50001C20.7855 8.63661 20.334 9.72665 19.5303 10.5303L15.5329 14.5277C15.1378 14.9303 14.6665 15.2501 14.1464 15.4687C13.6252 15.6877 13.0654 15.8005 12.5 15.8005C11.9346 15.8005 11.3748 15.6877 10.8536 15.4687C10.3323 15.2496 9.86 14.9288 9.46429 14.5249C9.1744 14.229 9.17924 13.7542 9.47511 13.4643C9.77098 13.1744 10.2458 13.1793 10.5357 13.4751C10.7918 13.7364 11.0974 13.9441 11.4347 14.0858C11.772 14.2275 12.1341 14.3005 12.5 14.3005C12.8659 14.3005 13.228 14.2275 13.5653 14.0858C13.9026 13.9441 14.2082 13.7364 14.4643 13.4751L14.4696 13.4697L14.4697 13.4697L18.4697 9.46968C18.9921 8.94729 19.2855 8.23878 19.2855 7.50001C19.2855 6.76124 18.9921 6.05273 18.4697 5.53034C17.9473 5.00795 17.2388 4.71448 16.5 4.71448C15.7612 4.71448 15.0527 5.00795 14.5303 5.53034L14.0303 6.03034C13.7374 6.32323 13.2626 6.32323 12.9697 6.03034C12.6768 5.73745 12.6768 5.26257 12.9697 4.96968L13.4697 4.46968Z" fill="black"/>
<path fill-rule="evenodd" clip-rule="evenodd" d="M9.85347 8.53132C10.3747 8.31229 10.9345 8.19946 11.4999 8.19946C12.0653 8.19946 12.625 8.31229 13.1463 8.53132C13.6676 8.75036 14.1399 9.07121 14.5356 9.47508C14.8255 9.77095 14.8206 10.2458 14.5248 10.5357C14.2289 10.8256 13.7541 10.8207 13.4642 10.5249C13.2081 10.2635 12.9025 10.0559 12.5652 9.9142C12.2279 9.77247 11.8657 9.69946 11.4999 9.69946C11.134 9.69946 10.7719 9.77247 10.4346 9.9142C10.0973 10.0559 9.79165 10.2635 9.5356 10.5249L9.53025 10.5303L9.53022 10.5303L5.53022 14.5303C5.00783 15.0527 4.71436 15.7612 4.71436 16.5C4.71436 17.2387 5.00783 17.9473 5.53022 18.4696C6.05261 18.992 6.76112 19.2855 7.49989 19.2855C8.23866 19.2855 8.94717 18.992 9.46956 18.4696L9.96956 17.9696C10.2625 17.6768 10.7373 17.6768 11.0302 17.9696C11.3231 18.2625 11.3231 18.7374 11.0302 19.0303L10.5302 19.5303C9.72653 20.334 8.63648 20.7855 7.49989 20.7855C6.3633 20.7855 5.27325 20.334 4.46956 19.5303C3.66587 18.7266 3.21436 17.6366 3.21436 16.5C3.21436 15.3634 3.66587 14.2733 4.46956 13.4696L8.467 9.47221C8.86213 9.06969 9.33344 8.74984 9.85347 8.53132Z" fill="black"/>
</svg>
