<svg viewBox="0 0 24 24" fill="none" xmlns="http://www.w3.org/2000/svg">
<path d="M22 12C22 17.5228 17.5228 22 12 22C6.47715 22 2 17.5228 2 12C2 6.47715 6.47715 2 12 2C17.5228 2 22 6.47715 22 12ZM6 12C6 15.3137 8.68629 18 12 18C15.3137 18 18 15.3137 18 12C18 8.68629 15.3137 6 12 6C8.68629 6 6 8.68629 6 12Z" fill="#DEDEDE"/>
<path d="M12 2C13.9778 2 15.9112 2.58649 17.5557 3.6853C19.2002 4.78412 20.4819 6.3459 21.2388 8.17317C21.9957 10.0004 22.1937 12.0111 21.8079 13.9509C21.422 15.8907 20.4696 17.6725 19.0711 19.0711L16.2426 16.2426C17.0818 15.4035 17.6532 14.3344 17.8847 13.1705C18.1162 12.0067 17.9974 10.8003 17.5433 9.7039C17.0892 8.60754 16.3201 7.67047 15.3334 7.01118C14.3467 6.35189 13.1867 6 12 6V2Z" fill="#A9A9A9"/>
</svg>
