<svg viewBox="0 0 24 24" fill="none" xmlns="http://www.w3.org/2000/svg">
<path fill-rule="evenodd" clip-rule="evenodd" d="M14.2694 2.04561L3.20327 2.8624C2.31096 2.93986 2 3.52333 2 4.22283V16.3544C2 16.8995 2.19383 17.3653 2.65996 17.988L5.2613 21.3709C5.68859 21.9156 6.07691 22.0321 6.89282 21.9931L19.7438 21.2153C20.8307 21.1379 21.1416 20.6321 21.1416 19.7767V6.1283C21.1416 5.68615 20.9671 5.55842 20.4525 5.18189C20.4242 5.16118 20.3949 5.13971 20.3645 5.11739L16.832 2.62892C15.9779 2.00704 15.6283 1.92879 14.2694 2.04561ZM7.18458 5.90438C6.13538 5.97539 5.89697 5.99152 5.30115 5.50637L3.78596 4.30101C3.63142 4.14514 3.70893 3.95071 4.09692 3.91215L14.7357 3.13439C15.6285 3.05646 16.0943 3.36804 16.444 3.64009L18.2687 4.96226C18.3464 5.00098 18.5402 5.23399 18.3071 5.23399L7.32003 5.89525L7.18458 5.90438ZM5.9598 19.6598V8.0728C5.9598 7.56742 6.11512 7.33394 6.58077 7.29472L19.1991 6.55618C19.6271 6.5173 19.8209 6.78967 19.8209 7.29472V18.8039C19.8209 19.3098 19.743 19.7381 19.0439 19.7767L6.96907 20.4769C6.27028 20.5155 5.9598 20.2825 5.9598 19.6598ZM17.8804 8.69443C17.9578 9.04474 17.8804 9.39472 17.5303 9.43409L16.9484 9.55027V18.1045C16.4433 18.3766 15.9775 18.5322 15.5894 18.5322C14.9679 18.5322 14.8123 18.3376 14.3468 17.7547L10.5412 11.7667V17.5603L11.7454 17.8327C11.7454 17.8327 11.7454 18.5322 10.7739 18.5322L8.09552 18.6879C8.01771 18.5322 8.09552 18.1437 8.36719 18.0658L9.06613 17.8717V10.2115L8.09568 10.1336C8.01787 9.78328 8.2117 9.27822 8.75565 9.23901L11.629 9.04489L15.5894 15.1109V9.7447L14.5796 9.62853C14.5021 9.20029 14.8123 8.88934 15.2006 8.85078L17.8804 8.69443Z" fill="currentColor"/>
</svg>
