<svg width="24" height="24" viewBox="0 0 24 24" fill="none" xmlns="http://www.w3.org/2000/svg">
<path fill-rule="evenodd" clip-rule="evenodd" d="M12 22C17.5228 22 22 17.5228 22 12C22 6.47715 17.5228 2 12 2C6.47715 2 2 6.47715 2 12C2 17.5228 6.47715 22 12 22ZM7.96099 16.6051C9.07458 17.5793 10.5051 18.1143 11.9846 18.1098C13.4642 18.1054 14.8915 17.5619 15.9992 16.581C17.107 15.6002 17.8193 14.2492 18.0028 12.7811C18.1863 11.3129 17.8285 9.82819 16.9963 8.60483C16.164 7.38148 14.9145 6.50337 13.4815 6.13488C12.0485 5.76639 10.5304 5.93277 9.21126 6.60289C8.53124 6.94834 7.92814 7.41544 7.42836 7.97528V6.71968C7.42836 6.30547 7.09257 5.96968 6.67836 5.96968C6.26415 5.96968 5.92836 6.30547 5.92836 6.71968L5.92836 10.053C5.92836 10.4672 6.26415 10.803 6.67836 10.803H6.99422C7.00574 10.8033 7.01724 10.8033 7.02872 10.803H10.0117C10.4259 10.803 10.7617 10.4672 10.7617 10.053C10.7617 9.6388 10.4259 9.30302 10.0117 9.30302H8.28007C8.70051 8.73395 9.25031 8.2655 9.89063 7.94023C10.8845 7.43534 12.0283 7.30998 13.1079 7.58761C14.1876 7.86525 15.129 8.52684 15.756 9.44854C16.3831 10.3702 16.6527 11.4889 16.5144 12.595C16.3761 13.7012 15.8395 14.719 15.0049 15.458C14.1702 16.197 13.0949 16.6065 11.9802 16.6098C10.8654 16.6132 9.78765 16.2101 8.94864 15.4761C8.10963 14.7421 7.56688 13.7275 7.422 12.6222C7.36817 12.2115 6.99159 11.9222 6.58089 11.976C6.17018 12.0299 5.88089 12.4065 5.93472 12.8172C6.12702 14.2842 6.84739 15.6309 7.96099 16.6051Z" fill="black"/>
</svg>
