<svg width="20" height="20" viewBox="0 0 20 20" fill="none" xmlns="http://www.w3.org/2000/svg">
<path fill-rule="evenodd" clip-rule="evenodd" d="M12.2694 0.0456102L1.20327 0.862405C0.310964 0.939861 0 1.52333 0 2.22283V14.3544C0 14.8995 0.193834 15.3653 0.659963 15.988L3.2613 19.3709C3.68859 19.9156 4.07691 20.0321 4.89282 19.9931L17.7438 19.2153C18.8307 19.1379 19.1416 18.6321 19.1416 17.7767V4.1283C19.1416 3.68615 18.9671 3.55842 18.4525 3.18189C18.4242 3.16118 18.3949 3.13971 18.3645 3.11739L14.832 0.628921C13.9779 0.00704159 13.6283 -0.0712113 12.2694 0.0456102ZM5.18458 3.90438C4.13538 3.97539 3.89697 3.99152 3.30115 3.50637L1.78596 2.30101C1.63142 2.14514 1.70893 1.95071 2.09692 1.91215L12.7357 1.13439C13.6285 1.05646 14.0943 1.36804 14.444 1.64009L16.2687 2.96226C16.3464 3.00098 16.5402 3.23399 16.3071 3.23399L5.32003 3.89525L5.18458 3.90438ZM3.9598 17.6598V6.0728C3.9598 5.56742 4.11512 5.33394 4.58077 5.29472L17.1991 4.55618C17.6271 4.5173 17.8209 4.78967 17.8209 5.29472V16.8039C17.8209 17.3098 17.743 17.7381 17.0439 17.7767L4.96907 18.4769C4.27028 18.5155 3.9598 18.2825 3.9598 17.6598ZM15.8804 6.69443C15.9578 7.04474 15.8804 7.39472 15.5303 7.43409L14.9484 7.55027V16.1045C14.4433 16.3766 13.9775 16.5322 13.5894 16.5322C12.9679 16.5322 12.8123 16.3376 12.3468 15.7547L8.54123 9.76669V15.5603L9.74545 15.8327C9.74545 15.8327 9.74545 16.5322 8.7739 16.5322L6.09552 16.6879C6.01771 16.5322 6.09552 16.1437 6.36719 16.0658L7.06613 15.8717V8.21152L6.09568 8.13358C6.01787 7.78328 6.2117 7.27822 6.75565 7.23901L9.62895 7.04489L13.5894 13.1109V7.7447L12.5796 7.62853C12.5021 7.20029 12.8123 6.88934 13.2006 6.85078L15.8804 6.69443Z" fill="black"/>
</svg>
