<svg width="24" height="24" viewBox="0 0 24 24" fill="none" xmlns="http://www.w3.org/2000/svg">
<path d="M12.6654 1.67003C12.5391 1.41403 12.2783 1.25195 11.9929 1.25195C11.7074 1.25195 11.4466 1.41403 11.3203 1.67003L8.40889 7.56929L1.89929 8.51271C1.61661 8.55368 1.38175 8.75165 1.29353 9.02331C1.20531 9.29497 1.27905 9.59316 1.48372 9.79238L6.20093 14.3841L5.08865 20.8681C5.04039 21.1495 5.15605 21.4339 5.38702 21.6017C5.61798 21.7695 5.92419 21.7916 6.17688 21.6588L11.9995 18.5975L17.8082 21.6585C18.0609 21.7916 18.3673 21.7697 18.5984 21.6019C18.8296 21.4341 18.9454 21.1497 18.8971 20.8681L17.7848 14.3841L22.502 9.79238C22.7067 9.59316 22.7804 9.29497 22.6922 9.02331C22.604 8.75165 22.3691 8.55368 22.0864 8.51271L15.5768 7.56929L12.6654 1.67003Z" fill="black"/>
</svg>
