<svg viewBox="0 0 24 24" fill="none" xmlns="http://www.w3.org/2000/svg">
<path fill-rule="evenodd" clip-rule="evenodd" d="M4.25 12C4.25 11.5858 4.58579 11.25 5 11.25H19C19.4142 11.25 19.75 11.5858 19.75 12C19.75 12.4142 19.4142 12.75 19 12.75H5C4.58579 12.75 4.25 12.4142 4.25 12Z" fill="currentColor"/>
<path fill-rule="evenodd" clip-rule="evenodd" d="M11.9944 4.25002C12.9789 4.23513 13.9631 4.38669 14.79 4.69678C15.5966 4.99924 16.3177 5.47886 16.6668 6.15648C16.8566 6.52468 16.7119 6.97698 16.3437 7.16672C15.9755 7.35645 15.5232 7.21177 15.3335 6.84357C15.2291 6.6411 14.9109 6.3441 14.2633 6.10127C13.6378 5.8667 12.8422 5.7368 12.012 5.74993L12.0002 5.75012V5.75002H11.0002C10.2708 5.75002 9.57134 6.03975 9.05561 6.55548C8.53989 7.07121 8.25016 7.77068 8.25016 8.50002C8.25016 9.22937 8.53989 9.92884 9.05561 10.4446C9.57134 10.9603 10.2708 11.25 11.0002 11.25H13.0002C14.1273 11.25 15.2083 11.6978 16.0054 12.4948C16.8024 13.2919 17.2502 14.3729 17.2502 15.5C17.2502 16.6272 16.8024 17.7082 16.0054 18.5052C15.2083 19.3023 14.1273 19.75 13.0002 19.75H11.506C10.5214 19.7649 9.53721 19.6134 8.71031 19.3033C7.90375 19.0008 7.18264 18.5212 6.83347 17.8436C6.64373 17.4754 6.78841 17.0231 7.15661 16.8333C7.52482 16.6436 7.97711 16.7883 8.16685 17.1565C8.27118 17.3589 8.58945 17.6559 9.237 17.8988C9.86252 18.1333 10.6581 18.2633 11.4883 18.2501L11.5002 18.2499V18.25H13.0002C13.7295 18.25 14.429 17.9603 14.9447 17.4446C15.4604 16.9288 15.7502 16.2294 15.7502 15.5C15.7502 14.7707 15.4604 14.0712 14.9447 13.5555C14.429 13.0398 13.7295 12.75 13.0002 12.75H11.0002C9.87299 12.75 8.79198 12.3023 7.99495 11.5052C7.19792 10.7082 6.75016 9.62719 6.75016 8.50002C6.75016 7.37285 7.19792 6.29185 7.99495 5.49482C8.79198 4.69779 9.87299 4.25002 11.0002 4.25002H11.9944Z" fill="currentColor"/>
</svg>
