<svg viewBox="0 0 24 24" fill="none" xmlns="http://www.w3.org/2000/svg">
<g clip-path="url(#clip0_1_150)">
<path d="M3 15.196C3 17.8703 4.86451 20.1224 7.11782 20.1224H9.93667C11.0589 20.6771 12.4197 21 13.9396 21H15.1237C16.1841 21 17.1031 20.942 17.7128 20.8013C18.8969 20.5281 19.6392 19.758 19.6392 18.781C19.6392 18.5741 19.6038 18.3919 19.5508 18.2098C20.134 17.7958 20.461 17.1914 20.461 16.529C20.461 16.2061 20.3903 15.8832 20.2666 15.6265C20.6642 15.2456 20.8851 14.6909 20.8851 14.1113C20.8851 13.7387 20.7879 13.3413 20.62 13.0515C20.8586 12.7286 21 12.2732 21 11.793C21 10.6007 20.0015 9.65685 18.729 9.65685H15.5037C15.3093 9.65685 15.1856 9.57406 15.1856 9.41674C15.1856 8.55566 16.6348 6.53542 16.6348 4.9126C16.6348 3.79485 15.8041 3 14.6642 3C13.8247 3 13.2592 3.4057 12.7025 4.39926C11.6686 6.26219 10.4315 7.93468 8.41679 10.2364H6.79971C4.69661 10.2364 3 12.4637 3 15.196ZM7.97496 15.1546C7.97496 13.4241 8.39028 12.3229 9.53903 10.874C10.8203 9.26771 12.5965 7.34683 13.8778 4.96228C14.1959 4.35787 14.408 4.22539 14.7172 4.22539C15.0795 4.22539 15.327 4.4655 15.327 4.9126C15.327 6.20423 13.8778 8.15823 13.8778 9.41674C13.8778 10.3275 14.673 10.8822 15.6892 10.8822H18.729C19.2769 10.8822 19.6922 11.2714 19.6922 11.793C19.6922 12.1739 19.5596 12.414 19.2327 12.7286C19.0736 12.8611 19.056 13.0267 19.1885 13.184C19.4624 13.5649 19.5773 13.7967 19.5773 14.1113C19.5773 14.4839 19.3918 14.8068 19.0029 15.08C18.7909 15.2373 18.7025 15.4443 18.8262 15.6927C19.0471 16.0653 19.1532 16.2392 19.1532 16.529C19.1532 16.9512 18.8616 17.2741 18.243 17.5722C18.0486 17.6799 18.0044 17.8289 18.0839 18.0028C18.296 18.4995 18.3225 18.5741 18.3225 18.781C18.3225 19.1619 18.0221 19.4683 17.4035 19.6173C16.8999 19.7332 16.0957 19.7829 15.1325 19.7829H14.0368C10.3962 19.7829 7.97496 17.8454 7.97496 15.1546ZM4.30781 15.196C4.30781 13.1343 5.4919 11.4618 6.79971 11.4618H7.56848C6.94109 12.5713 6.66716 13.7305 6.66716 15.1297C6.66716 16.6118 7.2327 17.9034 8.2489 18.8887H7.11782C5.62445 18.8887 4.30781 17.1996 4.30781 15.196Z" fill="currentColor"/>
</g>
<defs>
<clipPath id="clip0_1_150">
<rect width="24" height="24" fill="white"/>
</clipPath>
</defs>
</svg>
