<svg viewBox="0 0 24 24" fill="none" xmlns="http://www.w3.org/2000/svg">
<path d="M8.25216 15.3079C8.25216 18.5191 10.7103 21 14.721 21H15.894C17.0066 21 17.8346 20.9208 18.3004 20.7889C18.9731 20.6217 19.62 20.1994 19.62 19.3724C19.62 19.0293 19.5337 18.783 19.4302 18.5982C19.3612 18.4839 19.3785 18.3959 19.482 18.3519C20.0167 18.1232 20.4566 17.6129 20.4566 16.9179C20.4566 16.522 20.3445 16.1701 20.1547 15.9326C20.0599 15.8006 20.0685 15.6774 20.2324 15.5894C20.6119 15.3607 20.8879 14.868 20.8879 14.2962C20.8879 13.8827 20.7585 13.4516 20.5342 13.2405C20.3962 13.1173 20.4221 13.0293 20.5601 12.8974C20.8275 12.6686 21 12.2727 21 11.7713C21 10.9267 20.3531 10.2317 19.4992 10.2317H16.4632C15.6956 10.2317 15.1867 9.82698 15.1867 9.17595C15.1867 8.00587 16.6271 5.84164 16.6271 4.29326C16.6271 3.47507 16.1096 3 15.4368 3C14.8158 3 14.514 3.43109 14.1862 4.09091C12.9011 6.63343 11.1933 8.69208 9.89092 10.4516C8.78691 11.9472 8.25216 13.2405 8.25216 15.3079ZM4 15.3783C4 17.9824 5.59564 20.1642 7.73465 20.1642H9.25266C7.70015 19.0117 7.0619 17.2698 7.0619 15.2903C7.07052 13.0909 7.90715 11.5161 8.64891 10.566H7.41552C5.49214 10.566 4 12.6774 4 15.3783Z" fill="currentColor"/>
</svg>
