<svg viewBox="0 0 24 24" fill="none" xmlns="http://www.w3.org/2000/svg">
<g clip-path="url(#clip0_933_6829)">
<path fill-rule="evenodd" clip-rule="evenodd" d="M18.715 4.91889C17.4269 3.78554 15.6944 3.82245 14.1926 4.37423C12.4487 5.01496 11.2789 6.59696 11.3024 8.43075V8.64556C8.79874 8.51439 6.59644 7.30552 5.12548 5.28951C4.98665 5.09924 4.75839 4.99174 4.52025 5.00447C4.28211 5.0172 4.0671 5.1484 3.95016 5.35234L4.5582 5.68801C3.95016 5.35234 3.94997 5.35267 3.94977 5.35303L3.94929 5.35387L3.94806 5.35603L3.94456 5.36222L3.93357 5.38199C3.92452 5.39841 3.9121 5.42129 3.89679 5.4503C3.86619 5.5083 3.82397 5.59097 3.77401 5.69574C3.67419 5.90504 3.54273 6.20404 3.411 6.57219C3.14891 7.30468 2.87841 8.33128 2.86685 9.48046C2.85523 10.6349 3.10542 11.9245 3.89726 13.152C4.52619 14.127 5.47617 15.0309 6.84396 15.7915C5.52964 16.512 4.22249 16.9269 2.72488 16.8697C2.4011 16.8573 2.11126 17.0653 2.02516 17.3718C1.93905 17.6783 2.07935 18.0027 2.36386 18.1548C5.55867 19.8634 9.10316 20.4853 12.2262 19.5958L12.2263 19.5958C15.7752 18.5842 18.7016 15.9654 19.8205 12.057L19.8215 12.0537C20.1422 10.9116 20.3061 9.73277 20.309 8.54842C20.3095 8.5473 20.31 8.54617 20.3105 8.54502C20.3416 8.47541 20.3906 8.3757 20.4577 8.24494C20.5312 8.10146 20.615 7.94237 20.7079 7.76589C20.7887 7.61253 20.8764 7.44603 20.9703 7.26522C21.3439 6.54557 21.8033 5.62542 21.9741 4.96941C21.991 4.91005 22 4.84789 22 4.78439V4.78348C22 4.43753 21.737 4.14595 21.387 4.10398C21.2367 4.08595 21.0907 4.11638 20.9663 4.18356C20.3359 4.4828 19.7344 4.64442 19.0541 4.82722C18.9433 4.85699 18.8305 4.88731 18.715 4.91889ZM20.0678 5.97026C19.819 6.04284 19.5743 6.1084 19.3363 6.17217C19.1211 6.22983 18.9114 6.28602 18.7091 6.34458C18.4495 6.41975 18.169 6.3408 17.9895 6.14203C17.2144 5.28379 16.0235 5.16349 14.6819 5.65641C13.4562 6.10676 12.6805 7.19139 12.6976 8.41687L12.6978 8.42626H12.6977V9.33901C12.6977 9.71026 12.3961 10.0139 12.0179 10.0233C9.17071 10.0948 6.59029 8.98636 4.7389 6.99422C4.73512 7.00466 4.73134 7.01516 4.72756 7.02573C4.49809 7.66706 4.27172 8.54006 4.26212 9.49397C4.25258 10.4426 4.45692 11.4596 5.07629 12.4198C5.69467 13.3785 6.7595 14.3314 8.55793 15.1007C8.79196 15.2008 8.95157 15.4184 8.97408 15.6679C8.99658 15.9174 8.87838 16.1591 8.6659 16.298C7.58777 17.0027 6.47881 17.5913 5.26518 17.9308C7.53337 18.7102 9.82044 18.8554 11.837 18.281C14.9482 17.3942 17.495 15.1157 18.4768 11.6882C18.7727 10.6335 18.9197 9.54401 18.9135 8.45013C18.9127 8.31343 18.9532 8.19701 18.9652 8.16255L18.9662 8.15978C18.9856 8.10377 19.0096 8.04678 19.0326 7.9953C19.0792 7.89104 19.142 7.7647 19.211 7.62991C19.2846 7.4864 19.3763 7.31205 19.4746 7.12525C19.5565 6.96981 19.6428 6.80576 19.727 6.64369C19.844 6.41824 19.9597 6.19093 20.0678 5.97026Z" fill="currentColor"/>
</g>
<defs>
<clipPath id="clip0_933_6829">
<rect width="24" height="24" fill="white"/>
</clipPath>
</defs>
</svg>
