<svg viewBox="0 0 24 24" fill="none" xmlns="http://www.w3.org/2000/svg">
<path d="M7.548 21.9013C16.6044 21.9013 21.558 14.3977 21.558 7.89129C21.558 7.67769 21.558 7.46529 21.5436 7.25529C22.5074 6.55753 23.3392 5.69363 24 4.70409C23.1013 5.1025 22.1479 5.36381 21.1716 5.47929C22.1996 4.86377 22.9689 3.89571 23.3364 2.75529C22.37 3.32876 21.3128 3.73297 20.2104 3.95049C19.4681 3.16061 18.486 2.6375 17.4164 2.46214C16.3467 2.28679 15.249 2.46897 14.2933 2.9805C13.3377 3.49202 12.5773 4.30434 12.13 5.29169C11.6826 6.27903 11.5732 7.38632 11.8188 8.44209C9.86111 8.34398 7.94592 7.83528 6.19757 6.94902C4.44923 6.06275 2.90679 4.81872 1.6704 3.29769C1.04078 4.38154 0.847907 5.6646 1.13104 6.88565C1.41418 8.1067 2.15204 9.17395 3.1944 9.87009C2.41112 9.84737 1.64478 9.63665 0.96 9.25569V9.31809C0.960467 10.4548 1.35407 11.5565 2.07408 12.4361C2.79408 13.3158 3.79616 13.9194 4.9104 14.1445C4.18537 14.3422 3.42467 14.3709 2.6868 14.2285C3.00139 15.2071 3.61401 16.0628 4.43895 16.676C5.26389 17.2893 6.25989 17.6293 7.2876 17.6485C6.26654 18.4508 5.09734 19.0439 3.84687 19.3939C2.5964 19.744 1.28919 19.8441 0 19.6885C2.2519 21.1338 4.87222 21.9003 7.548 21.8965" fill="currentColor"/>
</svg>
