<svg viewBox="0 0 24 24" fill="none" xmlns="http://www.w3.org/2000/svg">
<path fill-rule="evenodd" clip-rule="evenodd" d="M7 4.25C7.41421 4.25 7.75 4.58579 7.75 5V10C7.75 11.1272 8.19777 12.2082 8.9948 13.0052C9.79183 13.8022 10.8728 14.25 12 14.25C13.1272 14.25 14.2082 13.8022 15.0052 13.0052C15.8022 12.2082 16.25 11.1272 16.25 10V5C16.25 4.58579 16.5858 4.25 17 4.25C17.4142 4.25 17.75 4.58579 17.75 5V10C17.75 11.525 17.1442 12.9875 16.0659 14.0659C14.9875 15.1442 13.525 15.75 12 15.75C10.475 15.75 9.01247 15.1442 7.93414 14.0659C6.8558 12.9875 6.25 11.525 6.25 10V5C6.25 4.58579 6.58579 4.25 7 4.25Z" fill="currentColor"/>
<path fill-rule="evenodd" clip-rule="evenodd" d="M4.25 19C4.25 18.5858 4.58579 18.25 5 18.25H19C19.4142 18.25 19.75 18.5858 19.75 19C19.75 19.4142 19.4142 19.75 19 19.75H5C4.58579 19.75 4.25 19.4142 4.25 19Z" fill="currentColor"/>
</svg>
